<?xml version="1.0" standalone="no"?>
<!DOCTYPE svg PUBLIC "-//W3C//DTD SVG 20010904//EN"
 "http://www.w3.org/TR/2001/REC-SVG-20010904/DTD/svg10.dtd">
<svg version="1.0" xmlns="http://www.w3.org/2000/svg"
 width="237.000000pt" height="237.000000pt" viewBox="0 0 237.000000 237.000000"
 preserveAspectRatio="xMidYMid meet">
<metadata>
Created by potrace 1.14, written by Peter Selinger 2001-2017
</metadata>
<g transform="translate(0.000000,237.000000) scale(0.100000,-0.100000)"
fill="#000000" stroke="none">
<path d="M1927 2232 c-10 -10 -17 -26 -17 -35 0 -15 3 -14 20 3 19 19 31 23
73 23 24 0 21 14 -5 21 -38 10 -54 7 -71 -12z"/>
<path d="M2194 2202 c4 -7 13 -12 20 -12 8 0 32 -18 54 -41 41 -40 41 -40 36
-12 -3 15 -13 36 -23 46 -20 20 -99 37 -87 19z"/>
<path d="M1965 2189 c-30 -8 -69 -38 -76 -57 -2 -5 -28 -12 -58 -16 -78 -9
-100 -15 -159 -44 -101 -48 -199 -158 -203 -227 -4 -62 2 -78 40 -116 34 -34
44 -39 85 -39 40 0 58 8 127 55 44 30 86 55 93 55 8 0 24 -8 36 -18 18 -15 22
-28 22 -65 -2 -63 -26 -110 -79 -155 -111 -92 -134 -117 -165 -180 -60 -122
-44 -262 36 -312 37 -22 75 -28 127 -17 59 12 89 68 104 197 9 75 27 104 92
153 106 78 178 157 201 220 24 64 41 181 32 218 -22 82 -21 87 15 109 39 24
62 81 51 126 -4 15 -23 43 -42 61 -29 27 -44 33 -78 33 -23 0 -47 -5 -53 -11
-8 -8 -19 -6 -40 9 -36 25 -70 32 -108 21z"/>
<path d="M156 1522 c-30 -4 -30 -4 -11 -102 1 -8 -3 -30 -11 -47 -11 -29 -11
-34 4 -41 9 -5 31 -7 47 -6 17 1 40 2 53 3 13 1 34 12 47 26 31 30 35 101 7
135 -19 24 -81 38 -136 32z m90 -79 c8 -30 -11 -76 -29 -70 -12 4 -20 70 -12
94 7 20 35 3 41 -24z"/>
<path d="M336 1451 c-21 -23 -6 -36 39 -33 32 2 26 -3 -16 -12 -33 -7 -44 -48
-20 -69 22 -19 118 -19 125 0 5 12 9 12 28 -1 44 -31 108 -10 108 35 0 15 -5
31 -10 34 -8 5 -7 11 1 21 29 36 -61 63 -95 28 -18 -17 -21 -50 -6 -59 14 -8
-11 -34 -27 -28 -7 3 -13 20 -13 38 0 19 -7 41 -16 49 -22 22 -77 20 -98 -3z
m231 -27 c-3 -3 -12 -4 -19 -1 -8 3 -5 6 6 6 11 1 17 -2 13 -5z m-167 -48 c0
-3 -4 -8 -10 -11 -5 -3 -10 -1 -10 4 0 6 5 11 10 11 6 0 10 -2 10 -4z m135
-14 c-3 -3 -11 0 -18 7 -9 10 -8 11 6 5 10 -3 15 -9 12 -12z"/>
<path d="M515 1298 c-11 -6 -23 -16 -27 -22 -13 -18 -9 -74 6 -88 11 -10 9
-16 -10 -31 -33 -26 -32 -113 1 -101 19 8 13 -57 -8 -87 -18 -24 -22 -56 -11
-83 5 -13 23 -16 89 -16 74 0 84 2 98 23 13 19 15 20 14 3 -2 -25 47 -40 86
-26 18 6 37 6 54 -1 14 -5 35 -7 47 -3 19 6 19 5 -3 -13 -29 -23 -36 -69 -15
-100 8 -13 10 -23 4 -23 -5 0 -16 -11 -25 -23 -18 -27 -10 -87 11 -87 13 0 16
-25 8 -67 -3 -16 -9 -20 -24 -16 -21 6 -23 16 -20 109 2 69 -18 89 -85 86 -55
-4 -103 -4 -135 -1 -45 4 -90 -8 -90 -24 0 -6 -9 6 -19 28 -24 53 -59 83 -112
99 -75 22 -140 9 -197 -39 -45 -38 -63 -77 -67 -147 -6 -117 45 -192 149 -218
113 -28 132 -36 153 -58 25 -27 51 -24 83 11 36 38 16 117 -28 117 -16 0 -15
3 9 44 11 20 22 43 23 53 2 9 8 19 14 21 8 2 12 -15 12 -55 0 -95 43 -146 115
-136 35 5 53 6 117 2 27 -1 54 3 63 11 10 8 15 9 15 1 0 -15 162 -15 177 0 8
8 13 8 17 0 8 -13 265 -16 267 -3 10 90 9 102 -11 122 -11 11 -25 18 -30 15
-18 -11 -10 7 15 37 24 28 32 69 19 102 -5 13 -27 16 -134 16 -144 0 -140 2
-132 -78 4 -37 9 -45 32 -53 l27 -10 -25 -29 c-41 -46 -55 -28 -58 70 -1 53
-6 85 -14 90 -9 6 -8 14 4 39 23 44 2 96 -44 106 -32 7 -32 7 -10 22 12 9 28
29 35 46 l12 30 18 -30 c10 -17 31 -38 48 -48 40 -24 136 -25 171 -2 31 21 36
21 36 2 0 -22 162 -22 180 0 16 19 15 85 -1 96 -10 6 -14 45 -14 154 -1 85 -6
150 -12 156 -5 5 -34 12 -62 14 -44 4 -56 1 -75 -18 -14 -14 -22 -33 -21 -48
1 -13 3 -30 4 -38 0 -7 7 -11 15 -8 11 4 13 -15 13 -98 0 -107 -7 -139 -27
-119 -9 9 -9 14 -1 18 6 4 11 29 11 56 0 37 -6 55 -26 79 -59 71 -199 58 -238
-22 l-14 -30 -18 38 c-20 44 -67 68 -116 60 l-33 -5 0 56 c0 70 -17 85 -88 80
-36 -2 -55 -9 -66 -22 -14 -19 -15 -19 -37 3 -25 25 -58 29 -89 11z m139 -106
c5 -9 9 -106 7 -179 -1 -33 -4 -41 -16 -37 -12 5 -15 24 -15 84 0 59 -4 83
-16 95 -13 12 -14 19 -4 30 14 16 36 20 44 7z m166 -172 c0 -16 -4 -31 -9 -34
-9 -6 -22 53 -14 67 9 15 23 -5 23 -33z m-508 -317 c24 -21 25 -114 2 -137
-38 -39 -84 -4 -84 63 0 76 40 112 82 74z m340 -153 c-8 -11 -18 24 -13 48 5
26 6 26 11 -8 3 -19 4 -37 2 -40z"/>
<path d="M139 1271 c-22 -7 -29 -23 -29 -68 0 -32 4 -43 15 -43 22 0 22 -168
0 -184 -17 -12 -27 -77 -15 -96 10 -16 255 -9 291 9 27 13 67 76 63 99 -1 6
-2 23 -3 37 0 14 -10 33 -20 42 -18 15 -18 19 -5 37 38 54 -1 146 -69 162 -35
8 -207 12 -228 5z m168 -128 c2 -6 -3 -13 -12 -16 -10 -5 -15 0 -15 14 0 21
21 22 27 2z m10 -139 c2 -6 -5 -14 -17 -17 -15 -4 -20 0 -20 15 0 21 30 23 37
2z"/>
<path d="M1613 1009 c-37 -11 -95 -64 -119 -110 -37 -72 -19 -182 39 -239 43
-43 76 -59 134 -64 128 -13 233 81 233 209 0 149 -138 247 -287 204z"/>
</g>
</svg>
