<?xml version="1.0" standalone="no"?>
<!DOCTYPE svg PUBLIC "-//W3C//DTD SVG 20010904//EN"
 "http://www.w3.org/TR/2001/REC-SVG-20010904/DTD/svg10.dtd">
<svg version="1.0" xmlns="http://www.w3.org/2000/svg"
 width="1080.000000pt" height="1080.000000pt" viewBox="0 0 1080.000000 1080.000000"
 preserveAspectRatio="xMidYMid meet">
<metadata>
Created by potrace 1.14, written by Peter Selinger 2001-2017
</metadata>
<g transform="translate(0.000000,1080.000000) scale(0.100000,-0.100000)"
fill="#000000" stroke="none">
<path d="M3210 9610 l-3205 -1188 -3 -2036 c-1 -1120 1 -2036 5 -2036 5 0 219
79 478 174 l470 175 -2 48 c0 26 -33 365 -73 753 -78 769 -81 838 -40 923 49
104 163 193 270 211 43 7 382 36 864 73 l358 27 17 -20 c24 -30 198 -1541 179
-1560 -9 -8 -214 -33 -608 -73 -376 -38 -612 -66 -640 -76 -77 -27 -134 -77
-169 -146 -45 -91 -41 -174 14 -256 20 -31 95 -97 101 -90 2 2 -6 23 -18 47
-37 74 -24 199 24 237 7 5 108 44 223 86 l210 76 475 46 c279 27 480 51 489
58 14 12 12 87 -5 207 l-6 45 404 149 c221 82 407 152 412 157 6 5 10 139 10
324 l1 316 -35 9 c-19 5 -75 16 -125 26 -49 9 -94 20 -99 25 -4 4 -5 48 -1 97
l7 90 91 11 c311 41 483 54 717 55 167 1 266 -3 310 -12 317 -64 485 -210 498
-432 10 -176 -96 -352 -262 -433 -32 -16 -55 -31 -53 -34 10 -10 169 -34 187
-28 27 9 119 107 151 161 54 91 69 178 56 329 l-2 29 201 75 201 74 -15 41
c-19 55 -19 134 1 173 22 42 81 89 136 108 58 20 185 19 243 -1 57 -19 126
-77 144 -121 32 -74 4 -179 -60 -228 -54 -41 -113 -58 -211 -58 -65 -1 -101 4
-129 16 -22 10 -41 15 -43 13 -2 -2 10 -20 27 -39 86 -99 295 -116 417 -34
105 71 128 195 54 287 -17 22 -28 41 -23 43 4 2 1125 418 2491 923 l2484 919
-6 250 c-7 271 -20 381 -68 575 -68 275 -189 528 -365 760 -140 186 -268 315
-443 444 -286 212 -592 340 -961 402 -96 17 -211 18 -1325 20 l-1220 3 -3205
-1189z m292 -400 c461 -33 717 -170 864 -462 108 -214 124 -508 40 -730 -127
-335 -427 -558 -855 -635 -67 -12 -197 -16 -585 -20 l-499 -5 7 48 c17 121 4
106 147 170 l129 57 0 642 0 642 -57 12 c-32 7 -88 19 -125 28 l-68 15 1 41
c0 23 4 62 7 87 l7 45 85 12 c209 30 519 57 705 61 33 1 122 -3 197 -8z m3143
-490 c168 -24 272 -88 301 -185 15 -54 12 -108 -8 -150 -21 -43 -84 -96 -135
-115 -88 -33 -87 -33 -122 79 -46 148 -106 201 -224 201 -61 0 -97 -21 -122
-70 -32 -62 -10 -132 57 -183 18 -14 107 -66 196 -116 201 -112 233 -134 300
-205 79 -84 97 -130 97 -251 0 -84 -4 -107 -23 -146 -92 -186 -339 -294 -597
-260 -170 22 -310 90 -360 175 -29 49 -34 126 -12 179 19 44 88 104 134 115
98 25 91 26 104 -20 32 -122 126 -235 212 -256 47 -12 138 -3 177 18 34 18 53
73 40 120 -14 52 -47 78 -237 183 -179 99 -250 149 -315 223 -64 72 -83 128
-83 239 0 81 3 97 32 158 97 204 319 305 588 267z m-1261 -15 c117 -35 191
-119 229 -255 5 -19 12 -201 16 -405 4 -272 9 -376 19 -392 16 -29 53 -48 125
-63 31 -6 57 -15 57 -20 0 -5 -4 -31 -9 -57 -5 -26 -13 -65 -16 -86 -6 -35
-11 -41 -59 -63 -67 -30 -183 -42 -255 -24 -70 17 -122 67 -146 140 -20 62
-35 83 -43 60 -10 -29 -97 -111 -151 -144 -182 -111 -427 -76 -509 71 -48 87
-44 234 9 333 85 161 292 271 552 295 l77 7 0 87 c-1 204 -68 318 -196 329
-100 8 -127 -24 -149 -180 -8 -57 -15 -109 -15 -117 0 -20 -123 -9 -182 17
-56 24 -80 58 -86 121 -7 82 49 159 174 239 160 102 414 151 558 107z"/>
<path d="M3168 8984 c-5 -4 -8 -319 -8 -701 l0 -693 109 0 c249 0 402 45 531
155 139 120 204 277 204 495 0 145 -21 244 -80 369 -38 82 -57 107 -132 181
-94 93 -180 144 -297 176 -64 17 -315 31 -327 18z"/>
<path d="M5201 7954 c-161 -43 -241 -119 -241 -229 0 -118 118 -170 241 -106
81 42 79 37 79 203 0 112 -3 148 -12 147 -7 0 -37 -7 -67 -15z"/>
<path d="M9802 5718 l3 -852 123 -35 124 -34 -6 -31 c-3 -17 -8 -61 -12 -98
l-7 -68 -434 0 -435 0 7 83 c10 127 -6 112 183 167 l72 21 -2 569 c-2 312 -6
571 -9 575 -4 3 -112 -33 -240 -80 -186 -69 -238 -84 -251 -76 -22 14 -23 3
-2 -24 8 -11 27 -56 41 -100 24 -71 27 -95 26 -215 0 -112 -14 -254 -25 -265
-2 -2 -162 -6 -356 -10 l-354 -8 7 -51 c21 -150 106 -269 224 -311 104 -36
301 -27 429 21 37 13 71 26 77 27 5 1 16 -38 25 -87 l14 -89 -39 -33 c-150
-126 -446 -195 -648 -150 -320 72 -503 357 -483 758 l6 127 -30 -11 c-17 -6
-34 -7 -37 -4 -4 3 -15 39 -25 79 -24 93 -74 198 -128 265 -23 29 -44 51 -46
49 -2 -2 12 -32 31 -68 63 -119 80 -202 80 -389 0 -191 -12 -248 -75 -375
-117 -232 -341 -385 -624 -425 -170 -24 -423 11 -584 80 l-51 22 -3 112 -3
113 -177 -66 c-97 -36 -182 -71 -187 -76 -6 -6 -13 -43 -17 -83 l-7 -72 -396
-2 -396 -3 -3 -42 -3 -43 38 0 c21 0 44 -4 50 -8 7 -5 -344 -140 -862 -332
-481 -178 -875 -327 -875 -332 0 -4 5 -8 12 -8 6 0 43 -14 82 -32 347 -157
536 -492 536 -949 0 -70 -7 -166 -15 -215 -65 -371 -302 -662 -637 -779 l-77
-27 30 -48 c63 -102 163 -181 312 -244 82 -35 296 -96 337 -96 11 0 21 -3 23
-7 10 -15 -20 -165 -34 -173 -7 -5 -50 -19 -94 -32 -69 -19 -104 -23 -250 -23
-152 0 -177 2 -240 23 -241 81 -374 241 -392 474 l-6 78 -107 0 c-158 0 -343
40 -460 100 -325 165 -510 498 -510 917 0 169 33 345 90 478 11 26 19 50 16
52 -3 3 -1905 -696 -2130 -783 -18 -7 -18 -20 -13 -298 6 -314 16 -415 67
-617 93 -373 298 -729 580 -1007 322 -318 723 -519 1190 -598 96 -16 211 -18
1319 -21 l1214 -4 3206 1187 c1763 653 3209 1190 3214 1194 4 3 6 940 5 2082
l-3 2075 -440 -163 c-242 -90 -448 -166 -457 -169 -17 -6 -18 5 -18 147 l0
154 -33 32 c-18 18 -36 32 -40 32 -4 0 -6 -383 -5 -852z m-3117 -1809 c109
-41 160 -111 153 -211 -6 -79 -44 -132 -123 -173 -55 -28 -66 -30 -169 -30
-94 1 -117 4 -152 22 -45 24 -100 81 -115 120 -14 37 -11 131 6 162 20 40 90
97 139 115 64 22 194 20 261 -5z m-958 -640 l28 -31 5 -511 c5 -558 5 -552 64
-606 14 -14 63 -37 109 -52 45 -16 83 -34 84 -41 2 -7 -3 -53 -10 -103 l-12
-89 -73 -23 c-153 -48 -321 -50 -408 -5 -74 38 -105 84 -118 175 -8 54 -24 60
-49 18 -29 -49 -134 -139 -200 -170 -82 -39 -134 -50 -232 -51 -212 0 -333 88
-377 277 -6 29 -13 211 -17 452 l-6 405 -95 57 c-52 32 -99 60 -104 62 -13 4
24 218 38 222 6 2 123 11 260 20 l249 17 29 -29 29 -29 0 -375 c-1 -206 3
-416 8 -467 19 -188 90 -255 246 -230 60 9 112 33 158 71 l27 23 -2 324 -3
324 -104 42 c-57 24 -106 46 -109 48 -5 6 25 236 32 243 2 2 118 17 257 32
140 16 257 29 261 30 5 0 20 -13 35 -30z m1008 0 l35 -31 0 -568 0 -569 53
-15 c28 -8 87 -25 130 -37 l78 -22 -6 -81 c-3 -45 -8 -91 -11 -103 l-4 -23
-450 0 -450 0 5 73 c12 143 6 134 88 157 40 12 96 29 125 38 l52 16 0 407 0
408 -124 66 -123 67 18 100 c10 55 19 101 21 103 2 2 120 12 263 23 143 10
261 20 262 21 1 0 18 -13 38 -30z m1680 -86 l-7 -98 -369 -512 c-203 -282
-369 -515 -369 -518 0 -3 98 -5 218 -5 l217 1 84 140 c46 77 87 142 91 144 5
3 45 -3 90 -12 l82 -18 -7 -45 c-4 -25 -19 -133 -34 -240 l-26 -195 -582 -3
-581 -2 -4 107 -5 108 358 513 358 512 -197 0 -197 0 -64 -145 c-50 -114 -67
-145 -80 -141 -9 3 -52 10 -95 17 l-79 12 7 141 c3 78 9 185 13 239 l6 97 590
0 589 0 -7 -97z"/>
<path d="M6750 6249 c0 -174 -5 -341 -11 -380 -6 -39 -8 -73 -5 -77 4 -3 27
14 51 38 l45 44 0 316 0 316 -28 27 c-15 15 -33 27 -40 27 -9 0 -12 -76 -12
-311z"/>
<path d="M3908 6363 c-17 -4 -18 -28 -18 -329 l0 -324 40 0 40 0 0 53 0 53
200 74 c226 83 217 75 207 182 -10 112 -76 212 -172 260 -61 31 -230 49 -297
31z"/>
<path d="M6217 6350 c-5 -21 7 -32 90 -74 63 -32 63 -32 63 -3 0 18 -15 31
-69 60 -37 20 -71 37 -74 37 -2 0 -7 -9 -10 -20z"/>
<path d="M9240 6347 c0 -18 16 -30 85 -65 47 -23 87 -42 90 -42 3 0 5 11 5 25
0 21 -12 31 -80 65 -44 22 -84 40 -90 40 -5 0 -10 -10 -10 -23z"/>
<path d="M1612 6340 c-24 -3 -48 -13 -53 -21 -8 -13 -3 -135 6 -166 3 -7 -3
-13 -13 -13 -60 0 -188 -22 -200 -34 -11 -11 -13 -30 -7 -85 9 -86 23 -106 74
-97 20 3 66 9 103 12 l66 7 6 -64 c33 -352 45 -450 57 -465 11 -13 25 -15 79
-9 36 4 73 11 83 16 22 13 22 47 -7 321 -20 195 -20 218 -6 222 8 3 51 7 95
11 118 10 119 11 111 103 -9 107 -12 108 -136 92 -56 -7 -102 -11 -104 -9 -2
2 -6 39 -10 83 -3 43 -11 85 -17 92 -12 15 -55 16 -127 4z"/>
<path d="M5740 5406 c0 -294 3 -537 8 -539 4 -3 22 -8 40 -12 l32 -7 0 519 0
519 -28 27 c-15 15 -33 27 -40 27 -9 0 -12 -127 -12 -534z"/>
<path d="M8389 5775 c-73 -40 -138 -191 -139 -323 0 -53 0 -54 28 -48 15 3 94
12 176 20 82 8 153 19 158 24 6 6 8 54 6 109 -4 119 -30 184 -88 214 -41 22
-104 24 -141 4z m101 -89 c0 -2 -7 -7 -16 -10 -8 -3 -12 -2 -9 4 6 10 25 14
25 6z"/>
<path d="M5203 5724 c-7 -20 -3 -23 85 -73 l73 -41 -3 27 c-2 23 -16 35 -72
65 -38 21 -71 38 -73 38 -2 0 -6 -7 -10 -16z"/>
<path d="M6957 5700 c-52 -14 -130 -54 -172 -91 l-35 -31 0 -329 0 -329 48
-31 c134 -85 309 -80 387 13 62 74 110 210 103 294 l-3 41 -220 -82 c-121 -45
-223 -79 -228 -75 -4 3 -6 98 -5 210 l3 204 50 38 c28 21 75 48 105 59 63 24
172 30 208 11 12 -7 22 -8 22 -3 0 16 -51 71 -81 86 -36 19 -133 27 -182 15z"/>
<path d="M3890 5170 l0 -350 40 0 40 0 0 301 0 301 178 -4 c178 -3 179 -3 240
-35 70 -36 72 -21 5 37 -84 74 -183 99 -385 100 l-118 0 0 -350z"/>
<path d="M4905 5413 c34 -71 55 -156 55 -223 -1 -258 -185 -466 -481 -545
-153 -40 -237 -45 -745 -45 l-481 0 -7 -31 c-3 -17 -6 -38 -6 -46 0 -12 82
-14 588 -10 556 3 592 5 674 25 109 26 222 71 291 115 155 100 247 265 247
447 0 126 -41 235 -119 320 l-42 45 26 -52z"/>
<path d="M1640 4563 c0 -16 9 -108 19 -207 l19 -178 51 -52 c60 -60 58 -69 36
134 -8 74 -15 138 -15 143 0 4 -9 7 -20 7 -14 0 -20 7 -20 23 0 12 -3 32 -6
45 -5 16 -2 22 9 22 23 0 30 17 23 56 -7 33 -9 34 -51 34 -42 0 -45 -2 -45
-27z"/>
<path d="M2590 4500 c-19 -5 -205 -26 -412 -47 l-378 -38 0 -43 c0 -27 5 -45
14 -48 26 -10 849 77 874 92 29 19 29 58 0 78 -24 17 -44 18 -98 6z"/>
<path d="M1159 4396 c40 -43 112 -84 176 -101 63 -16 131 -20 138 -7 2 4 2 28
-1 54 -3 39 -8 47 -28 52 -16 4 -31 1 -41 -10 -23 -22 -138 -14 -213 16 l-55
22 24 -26z"/>
<path d="M1575 4180 c4 -58 9 -109 12 -114 6 -9 73 91 73 109 0 6 -21 33 -46
60 l-45 50 6 -105z"/>
<path d="M2951 3619 c-78 -13 -178 -65 -231 -119 -98 -100 -152 -251 -171
-470 -24 -277 43 -558 175 -744 109 -153 259 -247 442 -276 66 -11 66 -11 151
30 151 73 248 200 294 381 29 119 37 385 15 529 -58 381 -237 630 -482 670
-69 11 -118 11 -193 -1z"/>
</g>
</svg>
