<?xml version="1.0" standalone="no"?>
<!DOCTYPE svg PUBLIC "-//W3C//DTD SVG 20010904//EN"
 "http://www.w3.org/TR/2001/REC-SVG-20010904/DTD/svg10.dtd">
<svg version="1.0" xmlns="http://www.w3.org/2000/svg"
 width="424.000000pt" height="424.000000pt" viewBox="0 0 424.000000 424.000000"
 preserveAspectRatio="xMidYMid meet">
<metadata>
Created by potrace 1.14, written by Peter Selinger 2001-2017
</metadata>
<g transform="translate(0.000000,424.000000) scale(0.100000,-0.100000)"
fill="#000000" stroke="none">
<path d="M1850 4165 c-354 -52 -674 -182 -945 -383 -107 -79 -293 -258 -378
-362 -242 -300 -398 -671 -447 -1060 -15 -122 -12 -381 5 -512 121 -919 840
-1645 1756 -1773 150 -21 422 -21 565 0 349 51 669 183 951 393 113 85 320
292 405 405 200 269 329 572 389 912 30 171 32 463 6 634 -146 933 -867 1636
-1797 1751 -112 13 -403 11 -510 -5z m415 -95 c475 -39 898 -233 1231 -564
719 -717 768 -1866 113 -2651 -507 -607 -1364 -847 -2110 -590 -934 323 -1481
1279 -1284 2250 130 643 588 1187 1201 1428 169 67 366 111 554 126 142 12
156 12 295 1z"/>
<path d="M2020 3549 c-241 -23 -451 -94 -595 -201 -33 -25 -85 -53 -115 -63
-119 -38 -260 -123 -393 -238 -116 -100 -241 -301 -284 -457 -24 -91 -24 -290
1 -385 48 -182 166 -458 253 -588 92 -138 256 -289 437 -402 76 -47 94 -71 98
-130 1 -16 -6 -44 -15 -62 -9 -18 -17 -34 -17 -36 0 -3 28 -10 63 -16 103 -20
399 -96 607 -156 107 -31 201 -57 209 -58 7 -1 38 38 68 86 59 94 115 142 177
151 17 3 84 12 149 21 195 26 243 62 273 205 16 78 25 100 48 119 13 11 13 6
0 -35 -8 -26 -14 -57 -14 -69 0 -44 -31 -122 -60 -152 -47 -48 -88 -62 -261
-88 -116 -17 -169 -29 -188 -43 -36 -26 -81 -122 -88 -185 l-5 -52 71 -49 c81
-55 140 -117 183 -194 17 -28 31 -52 31 -52 1 0 2 71 2 157 0 155 1 159 33
239 65 163 98 186 288 204 193 18 282 59 328 152 14 29 26 60 26 71 0 32 30
83 56 98 38 20 47 44 33 83 -10 29 -9 40 16 95 26 57 27 66 16 95 -7 17 -17
50 -23 74 -10 42 -9 44 36 92 65 69 62 102 -16 188 -21 23 -52 63 -68 89 -26
40 -30 57 -30 115 l0 67 78 78 c120 119 169 243 159 398 -9 152 -71 283 -196
417 -112 120 -209 179 -426 263 -372 143 -625 185 -945 154z m60 -119 c200
-18 447 -83 595 -157 105 -53 207 -128 279 -203 74 -78 110 -136 143 -226 43
-119 48 -339 9 -398 -16 -26 -64 -42 -78 -28 -5 5 -13 59 -18 121 -10 109 -36
251 -47 251 -2 0 -2 -12 1 -27 24 -112 28 -293 6 -293 -4 0 -10 20 -13 44 -14
100 -126 392 -159 412 -5 3 2 -16 15 -42 33 -66 65 -163 72 -216 6 -43 5 -42
-18 17 -70 179 -148 298 -281 430 -157 156 -260 214 -464 261 -156 35 -343 31
-559 -11 -51 -10 49 25 117 41 59 14 178 29 255 33 17 0 82 -4 145 -9z m246
-161 c93 -44 221 -136 277 -198 145 -161 277 -456 277 -618 0 -49 2 -52 27
-55 18 -2 31 -13 42 -35 9 -18 21 -33 27 -33 6 0 17 -7 25 -16 10 -13 10 -23
-4 -62 -48 -132 -30 -216 60 -284 60 -46 100 -107 88 -136 -5 -13 -11 -8 -27
25 -11 24 -37 57 -57 74 -84 71 -102 93 -116 143 -14 48 -14 57 5 129 21 82
16 117 -16 117 -29 0 -139 -31 -161 -46 -13 -8 -23 -12 -23 -9 0 11 59 135 64
135 3 0 12 -13 21 -30 28 -55 38 -37 33 58 -6 98 -29 173 -93 310 -131 277
-265 422 -505 545 -94 48 -53 38 56 -14z m601 -990 c20 -20 2 -39 -56 -55 -68
-20 -108 -39 -140 -68 l-24 -21 16 30 c20 39 52 68 102 93 69 34 85 38 102 21z
m-79 -161 c-4 -42 -38 -51 -62 -16 -19 26 -21 47 -4 30 17 -17 48 -15 48 3 0
8 5 15 11 15 6 0 9 -14 7 -32z m40 -163 c38 -72 42 -87 42 -150 0 -84 18 -120
56 -111 24 6 24 6 24 -71 0 -109 -12 -144 -63 -185 -65 -53 -68 -53 -42 4 14
29 25 67 25 83 0 61 -31 153 -96 282 -56 111 -66 138 -62 172 2 23 -1 41 -6
41 -6 0 -5 5 2 12 9 9 6 18 -16 41 l-27 29 61 -33 c56 -30 64 -39 102 -114z
m200 -345 c32 -52 28 -72 -20 -104 l-43 -28 28 29 c30 33 35 73 12 113 -8 14
-14 36 -14 50 l1 25 7 -25 c5 -14 18 -41 29 -60z m-14 -152 c-9 -30 -8 -30
-29 -22 -16 6 -15 9 6 25 31 24 32 23 23 -3z"/>
<path d="M1436 819 c-101 -79 -52 -229 74 -229 126 0 175 150 74 229 -36 29
-112 29 -148 0z m124 -4 c41 -21 60 -53 60 -103 0 -35 -6 -49 -29 -72 -51 -52
-111 -52 -162 0 -23 22 -29 38 -29 70 0 52 13 76 53 100 38 24 68 25 107 5z"/>
<path d="M1445 721 c0 -80 0 -81 25 -81 24 0 26 3 22 38 l-4 37 28 -37 c15
-21 36 -38 46 -38 17 0 17 3 -7 34 -22 29 -23 35 -10 46 17 14 20 56 5 65 -5
3 -31 8 -57 12 l-48 5 0 -81z m79 43 c6 -17 -9 -44 -25 -44 -5 0 -9 14 -9 30
0 33 23 42 34 14z"/>
</g>
</svg>
