<?xml version="1.0" standalone="no"?>
<!DOCTYPE svg PUBLIC "-//W3C//DTD SVG 20010904//EN"
 "http://www.w3.org/TR/2001/REC-SVG-20010904/DTD/svg10.dtd">
<svg version="1.0" xmlns="http://www.w3.org/2000/svg"
 width="864.000000pt" height="864.000000pt" viewBox="0 0 864.000000 864.000000"
 preserveAspectRatio="xMidYMid meet">
<metadata>
Created by potrace 1.14, written by Peter Selinger 2001-2017
</metadata>
<g transform="translate(0.000000,864.000000) scale(0.100000,-0.100000)"
fill="#000000" stroke="none">
<path d="M3050 8462 c-372 -250 -704 -493 -1012 -742 l-106 -85 38 -75 c57
-112 73 -195 68 -337 -6 -139 -32 -221 -108 -337 -118 -180 -303 -284 -523
-294 -159 -7 -280 27 -406 112 l-54 37 -30 -28 c-131 -125 -591 -629 -800
-877 l-117 -139 0 -1829 c0 -1189 4 -1863 10 -1926 54 -500 265 -944 621
-1301 283 -285 621 -477 1013 -577 239 -61 99 -57 2042 -61 l1781 -4 104 123
c864 1025 1847 1875 2982 2579 l87 54 -3 1970 c-2 1836 -4 1977 -20 2075 -82
480 -284 876 -614 1207 -347 347 -769 553 -1267 619 -92 12 -378 14 -1766 14
l-1655 0 -265 -178z m4315 -2412 c187 -39 355 -74 372 -77 49 -9 59 -25 45
-81 -6 -26 -48 -258 -92 -517 -45 -258 -85 -474 -89 -478 -5 -5 -190 25 -412
67 -222 42 -417 76 -434 76 -45 0 -129 -43 -155 -80 -70 -98 -32 -224 85 -280
40 -20 44 -24 39 -48 -4 -15 -8 -28 -9 -29 -8 -11 -114 35 -145 63 -85 77 -97
146 -60 349 87 483 173 927 186 961 27 76 104 138 187 153 56 9 88 4 482 -79z
m-1592 32 l27 -28 2 -649 3 -650 45 -12 c135 -35 135 -35 132 -79 -1 -21 -5
-54 -8 -71 l-5 -33 -272 0 c-150 0 -296 -3 -324 -6 l-53 -7 0 35 c0 19 3 55 6
80 l6 45 89 27 89 26 2 520 c1 286 2 528 2 538 1 12 -26 30 -91 62 -51 25 -94
48 -97 51 -9 9 17 141 28 145 6 2 92 10 191 18 99 7 185 14 191 15 5 0 22 -12
37 -27z m-3075 -11 c112 -57 110 -206 -3 -265 -53 -28 -192 -30 -245 -3 -104
52 -109 211 -8 263 76 40 184 42 256 5z m773 2 l24 -28 -5 -290 c-3 -159 -4
-292 -3 -294 1 -2 32 24 69 58 37 33 92 73 123 88 49 25 67 28 151 28 83 0
102 -4 151 -28 106 -52 194 -177 225 -321 20 -91 17 -230 -5 -318 -67 -260
-313 -438 -604 -438 -100 0 -265 30 -339 62 l-48 20 0 614 0 614 -82 41 c-46
23 -85 43 -87 45 -6 5 10 120 19 134 5 9 56 17 166 25 232 18 217 19 245 -12z
m-1772 -48 c145 -35 251 -108 298 -203 23 -47 28 -69 27 -127 -2 -129 -71
-237 -194 -304 -59 -32 -59 -32 35 -51 193 -38 311 -234 261 -430 -42 -162
-149 -259 -356 -321 -72 -22 -92 -23 -527 -27 l-453 -3 0 23 c0 13 3 40 6 60
6 36 8 37 105 74 l99 37 -2 531 -3 531 -95 20 -95 21 -3 39 c-2 22 -1 53 2 70
l6 31 208 22 c114 13 223 24 242 26 82 9 377 -4 439 -19z m3258 -385 c74 -22
134 -77 175 -160 51 -101 63 -182 47 -322 l-12 -108 -81 0 c-44 0 -165 -3
-268 -7 l-188 -6 0 -28 c0 -45 40 -139 76 -179 19 -21 58 -48 86 -60 47 -20
64 -22 163 -18 78 4 127 11 170 26 32 12 63 18 67 14 4 -4 11 -35 14 -68 6
-60 6 -60 -30 -87 -125 -96 -350 -141 -501 -101 -171 44 -303 196 -335 385
-18 104 -8 276 20 358 93 265 366 430 597 361z m-2249 -33 c22 -23 22 -28 24
-437 l3 -415 94 -25 93 -25 -7 -70 c-4 -38 -7 -71 -8 -72 -1 0 -150 -3 -331
-5 l-328 -3 6 44 c3 24 6 58 6 75 0 31 1 32 86 56 47 13 87 26 89 30 2 3 5
140 6 304 l2 298 -87 46 -87 46 6 49 c4 26 10 60 14 75 l7 27 145 11 c233 18
242 17 267 -9z m4189 -854 c17 -7 17 -12 -18 -195 -13 -71 -27 -128 -30 -128
-4 0 -12 14 -19 30 -18 45 -28 46 -67 9 -34 -33 -35 -33 -30 -9 7 28 57 301
57 308 0 5 86 -7 107 -15z m342 -186 c208 -40 277 -57 285 -70 8 -12 7 -20 -4
-31 -13 -12 -34 -11 -160 14 -80 15 -211 40 -291 55 l-145 27 4 29 c3 19 10
29 21 28 9 0 139 -24 290 -52z m-1764 -638 c127 -65 124 -228 -5 -292 -64 -32
-206 -31 -266 0 -133 71 -114 253 31 308 63 23 179 16 240 -16z m-2746 -9
c335 -35 560 -216 649 -525 62 -215 54 -458 -21 -648 -83 -209 -259 -383 -454
-448 -35 -11 -63 -24 -63 -28 0 -4 14 -28 31 -54 33 -50 125 -124 199 -162 56
-28 184 -69 268 -86 l64 -12 -7 -46 c-12 -86 -14 -89 -63 -105 -113 -37 -270
-46 -384 -22 -96 21 -174 63 -244 131 -72 71 -104 142 -111 251 l-5 71 -127 6
c-141 6 -213 22 -318 72 -199 93 -336 261 -391 480 -21 82 -35 239 -28 330 28
409 277 696 676 781 19 4 76 10 125 14 50 4 93 8 96 8 4 1 52 -3 108 -8z
m1280 -494 l23 -24 -1 -325 c-2 -377 5 -442 53 -494 37 -41 80 -52 154 -41 52
8 114 40 140 70 9 12 12 77 10 269 l-3 254 -85 36 -85 37 2 48 c1 27 4 72 8
101 l6 51 72 7 c40 3 135 13 211 21 l139 15 24 -23 23 -24 3 -409 c2 -371 4
-413 20 -446 20 -40 69 -72 140 -90 l49 -12 -6 -56 c-13 -110 -12 -109 -69
-126 -217 -65 -375 -29 -416 94 -6 19 -11 45 -11 57 0 34 -10 30 -58 -26 -54
-62 -116 -105 -190 -131 -46 -17 -76 -20 -157 -17 -116 5 -162 23 -218 88 -64
75 -70 114 -74 486 l-4 331 -85 49 c-49 28 -84 55 -84 64 1 26 27 150 33 156
4 4 263 26 388 33 15 0 34 -9 48 -23z m1478 2 l23 -21 0 -457 0 -457 98 -28
c53 -15 101 -31 105 -35 5 -4 6 -42 2 -84 l-7 -76 -360 0 -361 0 8 83 c4 45 7
82 8 83 1 0 46 13 100 29 l97 28 -2 331 -3 331 -90 48 c-49 27 -92 51 -94 53
-2 2 2 39 10 84 13 79 13 80 43 81 17 0 101 7 186 14 219 17 211 18 237 -7z
m1343 -65 l-1 -78 -299 -415 c-165 -228 -300 -416 -300 -417 0 -2 80 -3 178
-3 l177 0 69 115 c38 63 74 115 82 115 15 0 117 -21 122 -25 2 -2 -9 -89 -24
-194 l-27 -191 -462 0 -462 0 -7 85 -6 85 280 401 c155 220 284 407 287 415 5
12 -17 14 -152 12 l-158 -3 -50 -116 -50 -116 -75 13 c-41 8 -76 15 -77 16 0
2 3 87 9 191 l9 187 469 0 468 0 0 -77z"/>
<path d="M7182 5834 c-5 -11 -13 -38 -17 -61 -8 -48 -8 -48 -89 -32 -68 14
-75 10 -87 -57 -11 -60 -3 -70 64 -78 69 -9 81 -17 74 -52 -3 -16 -18 -93 -33
-172 -32 -163 -31 -165 47 -176 32 -5 49 -3 56 6 6 7 24 86 40 176 17 90 33
165 36 168 3 3 32 0 66 -7 33 -6 66 -9 74 -6 8 3 19 28 24 57 13 63 3 76 -65
85 -81 11 -81 11 -71 53 13 54 11 89 -5 95 -7 3 -34 8 -59 12 -38 6 -47 4 -55
-11z"/>
<path d="M3657 5389 c-45 -11 -90 -33 -134 -67 l-33 -24 0 -249 0 -248 28 -19
c66 -48 194 -67 250 -38 102 53 159 227 134 406 -20 142 -67 217 -147 239 -45
12 -46 12 -98 0z"/>
<path d="M1358 5893 l-28 -4 0 -245 0 -244 131 0 c155 0 172 8 215 96 22 45
27 68 27 132 0 46 -7 91 -16 113 -24 58 -82 115 -134 133 -49 17 -151 27 -195
19z"/>
<path d="M1330 4985 l0 -265 113 0 c186 0 268 33 325 129 23 39 27 58 27 121
0 62 -5 85 -28 132 -53 108 -140 148 -324 148 l-113 0 0 -265z"/>
<path d="M4745 5450 c-54 -22 -101 -112 -114 -217 -5 -38 -7 -69 -6 -71 2 -2
36 1 77 7 40 6 104 13 142 17 l69 7 -5 86 c-3 52 -12 99 -22 119 -26 51 -88
74 -141 52z"/>
<path d="M2440 3710 c-114 -24 -194 -90 -251 -205 -46 -94 -62 -189 -62 -360
0 -129 4 -163 26 -248 73 -276 226 -430 474 -476 43 -9 54 -6 113 21 129 62
214 181 246 344 31 164 16 418 -35 565 -81 237 -212 359 -389 365 -42 2 -97
-1 -122 -6z"/>
<path d="M1205 7891 c-130 -38 -220 -95 -314 -197 -237 -259 -222 -660 34
-909 117 -114 251 -173 416 -182 300 -18 563 167 665 467 15 43 19 83 19 190
-1 120 -4 143 -27 208 -37 103 -82 175 -159 251 -80 80 -168 134 -275 166
-101 31 -264 34 -359 6z m310 -33 c28 -5 88 -28 134 -50 159 -76 280 -227 326
-408 23 -88 16 -250 -13 -337 -126 -364 -539 -529 -877 -350 -72 39 -172 130
-218 200 -161 243 -131 571 71 773 161 161 354 219 577 172z"/>
<path d="M1295 7707 c-66 -14 -127 -41 -146 -63 -6 -8 -19 -14 -29 -14 -36 0
-141 -82 -178 -139 -32 -49 -37 -65 -40 -132 -4 -66 0 -85 27 -153 47 -117 95
-177 195 -240 22 -14 27 -23 23 -44 -5 -27 -4 -27 121 -59 70 -17 134 -34 143
-38 11 -4 23 4 37 27 24 36 29 33 11 -6 -11 -23 -7 -29 40 -75 l51 -50 0 50
c0 76 21 115 67 128 21 6 50 11 64 11 31 0 79 35 79 57 0 9 7 24 16 34 10 11
16 39 18 78 1 33 7 66 14 73 18 18 15 33 -13 66 -31 36 -32 73 -4 98 75 67 64
206 -22 278 -108 91 -328 143 -474 113z m136 -47 c78 -15 172 -64 213 -112 42
-48 65 -135 47 -175 -15 -33 -31 -20 -32 25 -1 31 -2 33 -8 13 -6 -23 -8 -21
-20 19 -12 42 -41 95 -41 76 0 -5 -15 11 -34 35 -44 58 -104 99 -169 115 -63
15 -31 18 44 4z m209 -330 c0 -4 -13 -10 -29 -12 -18 -3 -27 0 -25 6 5 13 54
18 54 6z m-14 -29 c-3 -5 -16 -11 -28 -14 -22 -6 -22 -5 -4 8 22 17 40 20 32
6z m-11 -91 c8 -16 15 -41 15 -55 0 -14 7 -28 15 -31 18 -7 20 -44 2 -68 -12
-16 -13 -14 -14 16 0 19 -13 58 -27 86 -14 28 -23 58 -20 66 8 22 11 20 29
-14z"/>
<path d="M1641 7454 c0 -11 3 -14 6 -6 3 7 2 16 -1 19 -3 4 -6 -2 -5 -13z"/>
<path d="M1144 6825 c-4 -15 -1 -32 6 -40 18 -21 57 -19 70 5 16 30 -4 60 -40
60 -23 0 -31 -5 -36 -25z m62 -31 c-3 -8 -11 -14 -18 -13 -10 0 -10 2 0 6 6 2
13 17 13 31 1 18 3 21 6 9 3 -10 2 -25 -1 -33z m-49 4 c-3 -7 -5 -2 -5 12 0
14 2 19 5 13 2 -7 2 -19 0 -25z"/>
</g>
</svg>
