<?xml version="1.0" standalone="no"?>
<!DOCTYPE svg PUBLIC "-//W3C//DTD SVG 20010904//EN"
 "http://www.w3.org/TR/2001/REC-SVG-20010904/DTD/svg10.dtd">
<svg version="1.0" xmlns="http://www.w3.org/2000/svg"
 width="864.000000pt" height="864.000000pt" viewBox="0 0 864.000000 864.000000"
 preserveAspectRatio="xMidYMid meet">
<metadata>
Created by potrace 1.14, written by Peter Selinger 2001-2017
</metadata>
<g transform="translate(0.000000,864.000000) scale(0.100000,-0.100000)"
fill="#000000" stroke="none">
<path d="M2589 7683 l-2576 -955 -7 -66 c-11 -116 -7 -4576 4 -4702 44 -499
264 -963 625 -1325 350 -350 784 -561 1275 -620 88 -11 284 -14 835 -15 l720
0 2582 956 2581 956 7 92 c3 50 5 1133 3 2406 l-4 2315 -22 110 c-93 479 -280
839 -605 1167 -354 359 -801 573 -1309 628 -59 6 -376 10 -815 9 l-718 -1
-2576 -955z m4817 -1177 c66 -14 250 -52 409 -84 160 -33 309 -65 332 -71 44
-12 60 -35 48 -70 -3 -11 -48 -263 -99 -561 -52 -298 -98 -546 -104 -552 -8
-8 -136 12 -449 71 -241 45 -458 81 -483 81 -59 0 -141 -39 -173 -81 -81 -107
-44 -246 81 -305 56 -27 59 -31 54 -59 -2 -16 -7 -32 -9 -34 -2 -3 -29 3 -61
13 -44 14 -69 30 -112 75 -60 60 -80 107 -80 183 0 25 38 247 84 494 120 640
136 713 158 765 38 91 139 158 239 159 25 0 100 -11 165 -24z m-1433 -34 l27
-28 0 -717 c0 -565 3 -719 13 -722 6 -2 48 -13 92 -25 44 -11 85 -24 91 -28 8
-5 8 -30 1 -84 l-9 -78 -361 0 -360 0 7 77 c4 42 9 80 11 83 2 4 42 17 88 30
46 12 89 25 95 29 8 5 12 174 13 601 l2 595 -107 52 c-95 47 -106 55 -102 75
3 13 10 49 16 81 10 52 14 57 38 58 15 0 97 7 182 14 238 19 232 19 263 -13z
m-3412 -9 c113 -58 133 -188 41 -265 -77 -65 -227 -76 -315 -25 -102 60 -116
202 -26 269 49 37 84 46 170 47 63 1 84 -3 130 -26z m866 5 c23 -21 23 -23 23
-268 0 -136 -5 -284 -11 -329 -6 -45 -9 -85 -5 -88 3 -3 40 26 81 65 126 117
237 158 370 133 84 -16 157 -55 216 -118 161 -170 198 -502 82 -742 -50 -105
-177 -232 -283 -283 -133 -63 -178 -73 -345 -72 -158 0 -272 20 -371 64 l-44
19 0 678 0 678 -101 54 c-62 32 -99 58 -96 65 3 7 8 38 12 70 4 31 12 59 19
63 12 8 262 29 365 32 54 1 69 -3 88 -21z m-1962 -57 c158 -41 265 -113 320
-212 27 -49 30 -62 30 -149 0 -84 -3 -102 -29 -154 -36 -73 -116 -154 -184
-185 -29 -14 -52 -27 -52 -31 0 -4 30 -12 68 -19 131 -23 232 -96 286 -207 37
-75 47 -142 34 -234 -27 -205 -158 -328 -428 -402 -70 -20 -108 -21 -568 -25
l-493 -4 7 63 c3 35 9 66 13 69 3 4 51 23 107 44 l101 37 6 256 c4 140 7 405
7 588 l0 334 -22 5 c-13 3 -63 14 -111 24 -49 11 -90 21 -92 23 -2 2 -1 35 2
75 6 83 -15 73 208 98 256 29 338 34 525 30 148 -3 201 -7 265 -24z m3636
-443 c163 -75 239 -258 211 -510 -7 -62 -15 -114 -17 -117 -3 -2 -135 -7 -294
-10 -160 -4 -293 -10 -296 -13 -10 -10 15 -118 37 -161 33 -65 85 -114 146
-138 50 -18 72 -20 177 -17 112 5 162 15 246 52 14 6 18 -4 27 -66 13 -85 11
-89 -78 -143 -91 -55 -200 -87 -320 -92 -123 -6 -195 6 -279 48 -163 81 -256
231 -282 452 -39 335 134 632 423 727 91 29 221 24 299 -12z m-2528 -16 l27
-28 0 -456 0 -456 33 -11 c17 -5 61 -17 97 -27 36 -9 69 -20 73 -24 5 -5 6
-42 2 -84 l-7 -76 -365 0 -365 0 6 23 c3 12 6 48 6 79 l0 57 88 26 c48 14 95
28 105 31 16 5 17 30 17 338 l0 333 -101 54 c-84 45 -99 57 -95 74 2 11 10 47
16 81 l12 61 196 15 c109 8 204 16 213 17 8 0 27 -12 42 -27z m4602 -937 c25
-4 49 -13 51 -20 3 -6 -6 -70 -20 -141 -14 -71 -29 -149 -34 -174 l-8 -45 -23
45 c-13 25 -25 47 -27 49 -3 3 -22 -13 -44 -34 -45 -44 -46 -41 -26 53 8 37
22 110 31 162 21 119 22 123 39 117 7 -3 35 -9 61 -12z m440 -221 c153 -30
283 -58 288 -63 15 -15 3 -46 -19 -49 -12 -2 -155 22 -319 52 -164 31 -302 56
-307 56 -10 0 -11 54 -1 63 8 8 -6 11 358 -59z m-1983 -698 c29 -15 64 -40 77
-57 67 -86 32 -215 -75 -269 -42 -21 -62 -25 -144 -25 -116 0 -176 24 -217 87
-33 49 -42 131 -20 174 60 115 243 159 379 90z m-3017 -16 c410 -47 665 -295
735 -715 15 -90 15 -302 0 -383 -60 -331 -271 -591 -560 -693 -36 -12 -66 -24
-68 -25 -9 -6 36 -74 81 -121 90 -95 220 -159 426 -209 l113 -27 -6 -59 c-4
-33 -10 -66 -13 -74 -8 -21 -120 -52 -232 -63 -310 -32 -549 94 -621 327 -11
35 -20 91 -20 123 l0 59 -77 0 c-147 0 -333 39 -435 91 -162 82 -304 233 -371
395 -57 136 -79 257 -78 434 1 220 50 390 159 552 193 286 561 434 967 388z
m1397 -547 l28 -27 0 -365 c0 -221 4 -389 11 -428 21 -120 77 -167 189 -160
67 4 110 21 168 65 l32 25 -2 286 -3 285 -92 41 c-50 22 -95 43 -98 47 -10 10
16 188 30 202 7 7 103 22 234 35 l222 24 30 -29 29 -28 0 -448 c0 -510 0 -510
74 -552 22 -14 66 -32 96 -40 l56 -16 -11 -88 -10 -87 -70 -24 c-59 -21 -90
-25 -195 -25 -119 -1 -127 0 -173 27 -53 31 -81 76 -91 150 -4 26 -11 47 -15
47 -4 0 -27 -23 -50 -52 -88 -108 -197 -166 -332 -175 -156 -11 -276 43 -330
148 -42 83 -49 153 -49 514 l0 341 -92 54 c-51 29 -95 55 -97 56 -2 2 4 46 14
99 l17 95 36 1 c21 1 111 7 202 14 91 6 176 13 189 14 15 0 36 -10 53 -26z
m1640 0 l28 -27 0 -501 0 -502 115 -33 c129 -37 120 -24 108 -142 l-6 -68
-400 0 -399 0 6 23 c3 12 6 48 6 79 0 34 5 62 14 70 7 8 59 27 115 42 l101 29
-2 366 -3 366 -106 57 -106 58 15 90 15 90 41 1 c23 0 109 6 191 13 233 20
235 20 267 -11z m1488 -65 l0 -83 -330 -458 c-182 -251 -330 -462 -330 -467 0
-6 73 -10 193 -10 l192 0 79 130 c44 72 84 130 89 130 5 0 38 -5 73 -12 55
-10 64 -14 63 -32 0 -12 -13 -106 -27 -211 l-27 -190 -512 -3 -513 -2 0 27 c0
16 -3 57 -6 93 l-6 65 320 458 320 457 -178 0 -178 0 -56 -129 -57 -128 -82
15 c-45 8 -83 15 -83 16 -3 2 17 372 22 394 l4 22 515 0 515 0 0 -82z"/>
<path d="M7533 6209 c-6 -8 -14 -36 -18 -62 -4 -27 -14 -51 -21 -54 -8 -3 -44
0 -81 7 -60 12 -67 11 -79 -5 -18 -24 -29 -105 -17 -124 6 -9 37 -20 76 -26
36 -6 69 -14 73 -17 3 -4 -10 -92 -30 -195 -41 -217 -42 -216 51 -227 44 -6
53 -4 61 11 5 10 25 100 43 201 l34 183 29 -5 c17 -4 53 -9 82 -12 46 -6 53
-4 63 15 7 12 15 44 18 71 l6 49 -39 9 c-22 6 -58 13 -81 17 -48 7 -52 19 -33
85 18 62 6 75 -78 86 -34 4 -51 2 -59 -7z"/>
<path d="M3601 5705 c-24 -8 -68 -30 -98 -51 l-53 -36 0 -284 0 -283 28 -19
c67 -46 176 -70 242 -52 155 42 235 320 161 561 -48 152 -141 207 -280 164z"/>
<path d="M1050 5996 l0 -276 147 0 c140 0 147 1 179 25 18 14 45 51 61 82 24
51 28 69 28 148 0 103 -19 158 -76 214 -56 56 -109 75 -231 79 l-108 4 0 -276z"/>
<path d="M1050 5265 l0 -297 163 4 c142 3 167 6 203 25 64 34 100 69 128 125
48 97 27 250 -46 334 -16 18 -60 48 -96 66 -64 32 -72 33 -209 37 l-143 3 0
-297z"/>
<path d="M4835 5781 c-70 -30 -135 -163 -135 -278 0 -42 1 -43 33 -42 96 1
269 26 278 40 6 8 8 48 6 91 -6 86 -27 141 -67 170 -30 22 -87 31 -115 19z"/>
<path d="M2235 3840 c-200 -66 -305 -274 -305 -602 0 -447 214 -763 555 -818
54 -9 63 -7 120 20 88 42 147 91 193 160 55 81 80 153 97 274 59 416 -81 829
-323 948 -60 30 -75 33 -172 35 -83 2 -118 -1 -165 -17z"/>
</g>
</svg>
